<?xml version="1.0" standalone="no"?>
<!DOCTYPE svg PUBLIC "-//W3C//DTD SVG 20010904//EN"
 "http://www.w3.org/TR/2001/REC-SVG-20010904/DTD/svg10.dtd">
<svg version="1.0" xmlns="http://www.w3.org/2000/svg"
 width="525.000000pt" height="336.000000pt" viewBox="0 0 525.000000 336.000000"
 preserveAspectRatio="xMidYMid meet">

<g transform="translate(0.000000,336.000000) scale(0.100000,-0.100000)"
fill="#000000" stroke="none">
<path d="M2977 1819 c-125 -30 -206 -158 -178 -282 24 -109 124 -187 239 -187
138 0 245 102 245 235 0 155 -153 272 -306 234z m120 -70 c69 -26 118 -106
111 -180 -9 -92 -102 -168 -190 -156 -51 7 -112 50 -132 92 -43 91 4 214 94
248 25 9 87 8 117 -4z"/>
<path d="M2295 1809 c-3 -8 -4 -113 -3 -234 l3 -220 110 2 c97 3 116 6 165 30
72 37 110 105 110 197 -1 97 -40 170 -112 207 -50 26 -265 40 -273 18z m242
-79 c60 -36 83 -119 58 -205 -22 -76 -56 -99 -157 -104 l-78 -3 0 166 0 166
73 0 c54 0 80 -5 104 -20z"/>
<path d="M3767 1814 c-4 -4 -7 -74 -7 -156 0 -89 -4 -148 -9 -146 -6 2 -65 55
-133 119 -144 135 -193 179 -202 179 -4 0 -5 -102 -4 -227 l3 -228 33 -3 32
-3 0 155 c0 86 4 156 8 156 5 0 19 -12 33 -26 36 -39 296 -274 303 -274 4 0 5
102 4 228 l-3 227 -25 3 c-14 2 -29 0 -33 -4z"/>
<path d="M4121 1778 c-5 -13 -52 -111 -105 -219 -53 -108 -96 -199 -96 -203 0
-3 15 -6 33 -6 31 0 35 4 63 63 l29 62 88 3 c51 2 94 -2 101 -7 7 -6 19 -29
26 -51 7 -22 21 -47 31 -56 18 -16 60 -16 60 1 1 17 -204 435 -213 435 -5 0
-12 -10 -17 -22z m55 -175 c13 -31 24 -59 24 -64 0 -5 -27 -9 -60 -9 -37 0
-60 4 -60 11 0 22 54 128 62 123 5 -3 20 -31 34 -61z"/>
<path d="M2767 1293 c-4 -3 -7 -66 -7 -140 l0 -133 70 0 c81 0 95 18 18 22
l-53 3 -7 40 c-11 66 -4 75 58 75 69 0 71 18 2 22 -50 3 -53 5 -59 33 -9 50 5
65 61 65 28 0 50 5 50 10 0 11 -123 14 -133 3z"/>
<path d="M3080 1159 c0 -108 3 -140 13 -137 8 3 13 34 15 96 2 65 6 92 15 92
7 0 50 -40 96 -90 46 -49 87 -90 92 -90 5 0 9 59 9 131 0 100 -3 130 -12 127
-9 -3 -14 -34 -16 -94 -2 -49 -6 -92 -10 -96 -5 -5 -50 39 -102 97 -52 58 -95
105 -97 105 -2 0 -3 -63 -3 -141z"/>
<path d="M3720 1163 c0 -121 2 -143 15 -143 12 0 15 17 15 94 0 52 4 97 9 100
4 3 50 -38 102 -91 89 -91 93 -95 100 -71 9 34 11 210 3 231 -14 37 -24 1 -24
-87 0 -51 -3 -96 -7 -100 -5 -4 -54 41 -110 101 l-102 108 -1 -142z"/>
<path d="M2315 1183 c-10 -59 -20 -120 -23 -135 -2 -16 0 -28 6 -28 11 0 18
24 28 97 11 88 27 86 72 -9 l39 -83 39 79 c21 44 43 80 49 80 5 1 15 -26 22
-59 7 -33 15 -70 18 -82 3 -13 10 -23 16 -23 12 0 9 23 -18 150 -28 133 -24
131 -67 28 -22 -51 -44 -97 -48 -103 -13 -14 -32 14 -69 104 -17 42 -34 80
-38 84 -4 4 -16 -41 -26 -100z"/>
<path d="M3510 1155 c0 -83 4 -135 10 -135 6 0 10 52 10 135 0 83 -4 135 -10
135 -6 0 -10 -52 -10 -135z"/>
<path d="M4176 1159 c-32 -71 -55 -133 -52 -137 8 -7 20 7 48 57 15 28 22 31
66 31 53 0 64 -8 79 -55 5 -16 17 -31 27 -33 15 -3 16 -1 3 30 -35 82 -100
224 -106 230 -3 4 -32 -51 -65 -123z m88 20 c20 -49 15 -59 -30 -59 -26 0 -34
4 -34 18 0 23 29 82 40 82 4 0 15 -18 24 -41z"/>
</g>
</svg>
